<svg id="Слой_1" data-name="Слой 1" xmlns="http://www.w3.org/2000/svg" viewBox="0 0 40 57.33"><defs><style>.cls-1{fill:none;stroke:#ff8219;stroke-linejoin:round;stroke-width:2px;}.cls-2{fill:#ff8219;}</style></defs><title>hardness-icon</title><path class="cls-1" d="M-159.57-40.1c0,2.58-1.16,6.17-3,10.2a114.9,114.9,0,0,1-6.82,12.3c-2.48,4-5,7.61-6.84,10.25C-177.19-6-178-5-178.51-4.23l-.06.08-.05-.08c-.55-.74-1.32-1.81-2.26-3.12-1.86-2.64-4.35-6.27-6.84-10.25a114.9,114.9,0,0,1-6.82-12.3c-1.86-4-3-7.62-3-10.2a19.2,19.2,0,0,1,19-19.38A19.19,19.19,0,0,1-159.57-40.1Z" transform="translate(198.57 60.48)"/><circle class="cls-2" cx="19.5" cy="10.5" r="4.5"/><circle class="cls-2" cx="19.5" cy="23.5" r="4.5"/><circle class="cls-2" cx="19.5" cy="36.5" r="4.5"/></svg>