<?xml version="1.0" encoding="utf-8"?>
<!-- Generator: Adobe Illustrator 22.0.1, SVG Export Plug-In . SVG Version: 6.00 Build 0)  -->
<svg version="1.1" id="Слой_1" xmlns="http://www.w3.org/2000/svg" xmlns:xlink="http://www.w3.org/1999/xlink" x="0px" y="0px"
	 viewBox="0 0 42 58" style="enable-background:new 0 0 42 58;" xml:space="preserve">
<style type="text/css">
	.st0{fill:none;stroke:#FF8219;stroke-width:2;}
	.st1{fill:#FF8219;}
</style>
<path class="st0" d="M29.9,16.8c-7,1.1-11.2,1.3-18.9,0c-0.3-1.4-0.3-3.1,0.7-4.6C12.9,10.6,15.5,9,21,9c5.5,0,7.9,1.6,8.8,3.1
	C30.6,13.6,30.5,15.4,29.9,16.8z"/>
<path class="st1" d="M12.8,23.7c2.5-0.9,9.4-2.1,16.4,0l0.6-1.9c-7.5-2.3-14.8-0.9-17.6,0L12.8,23.7z"/>
<path class="st0" d="M4.9,25.1l0.3-0.3l-0.1-0.4l-0.7-4l0-0.2L4.3,20C2.3,16.9,1,12.4,2.8,8.6C4.5,4.9,9.4,1.5,21,1
	c11.7-0.4,16.5,2.8,18.2,6.6c1.8,3.9,0.4,8.9-1.5,12.4l-0.1,0.1l0,0.2l-0.7,4l-0.1,0.4l0.3,0.3C39.5,28.4,41,32.5,41,37
	c0,11.1-9,20-20,20S1,48,1,37C1,32.5,2.5,28.4,4.9,25.1z"/>
</svg>
